<svg xmlns="http://www.w3.org/2000/svg" viewBox="0 0 100 80">
  <!-- 上唇 -->
  <path d="M5,33
    C5,33 18,8 32,18
    C40,24 45,29 50,27
    C55,29 60,24 68,18
    C82,8 95,33 95,33
    C78,41 63,43 54,43
    C52,45 51,47 50,47
    C49,47 48,45 46,43
    C37,43 22,41 5,33 Z"
    fill="#c8001e"/>
  <!-- 下唇 -->
  <path d="M5,33
    C22,41 37,43 46,43
    C48,45 49,47 50,47
    C51,47 52,45 54,43
    C63,43 78,41 95,33
    C95,33 88,64 50,64
    C12,64 5,33 5,33 Z"
    fill="#cc0022"/>
  <!-- 舌 -->
  <path d="M34,60
    C28,70 30,80 50,80
    C70,80 72,70 66,60 Z"
    fill="#ee1111"/>
</svg>
